<svg version="1.0" xmlns="http://www.w3.org/2000/svg" width="933.333" height="933.333" viewBox="0 0 700 700"><path d="M343.1 4.2c3.4 17.4 4.2 23.5 4.3 32.3.1 11-1.1 16.8-5.5 25.8-7.8 16-21.1 26.3-47.9 37.2-15.3 6.1-29.9 13.4-37.7 18.6-18.3 12.4-32.4 30-38.2 47.7-6.2 19.1-5.8 37.6 1.2 49.7l2.2 4-9.9 7.7c-19.2 14.9-31.9 27.1-36.3 34.5-3.5 6-6.1 15.7-5.6 21.3.1 2.5 1.7 7.2 3.3 10.4 2.7 5.3 2.9 6.1 1.5 7.5-.8.9-2.4 3.9-3.7 6.6-2 4.5-2.2 6.5-2 18.4.1 9.8-.4 15.6-1.7 21.5-2.2 10.1-1.9 15 1.3 21.4 3.4 6.6 12 15.8 19 20.2 5.5 3.5 5.6 3.6 5.7 8.5.1 2.7.3 8.4.5 12.5.1 4.1.5 16.5.9 27.5 1.9 67.5 2.1 69 10.7 76.4 10.2 8.8 14.1 12.8 16.4 16.7 4.4 7.5 8.5 25.1 26 112.9l7.6 38 5.2 5.3c2.8 2.9 7.8 7.1 11.1 9.3l6 3.9h128.3l5.8-3.9c3.3-2.2 8.2-6.4 11.1-9.3l5.1-5.3 3.6-18c1.9-9.9 3.7-19.5 4.1-21.3.3-1.8 1.2-6.5 2.1-10.5.9-3.9 1.8-8.6 2.1-10.2 4.1-24.1 15.9-75.2 19.5-84.8 3.1-8.1 4-9.3 16.7-21.2 3.5-3.3 7.2-7.8 8.2-10 2.3-5.1 3.1-18.5 4.4-66 .6-23.1 1.4-42.4 1.9-47 .3-2.1 1.7-4 4.7-6.4 8.4-6.7 14.6-13.8 17.9-20.4 2.7-5.5 3.3-8.1 3.8-15.5.4-8.3-.7-17-2.9-21.2-.4-.8-1.5-3.3-2.4-5.5-2.9-6.6-10.4-16.5-19.1-25l-8.1-8 2.8-5.5c9.6-18.9 7.4-40-6.3-60.7-5.2-7.9-14.3-17.3-22.5-23.4l-5.1-3.8 2.8-5.3c3.5-6.5 7.6-20.2 8.7-29.4.9-8 1-35.6.1-42.9-1.8-13.5-6.6-30.8-11.9-42-2.9-6.2-11.2-19.3-16.8-26.3-14-17.6-28.9-30.2-53.5-45.6l-9-5.6H342.3l.8 4.2zm49 60.6c11.3 12.3 12.7 14 16.6 19.8 4 5.8 7.7 12.6 10.7 19.4 8.6 19.2 9.6 46.1 2.5 62.8-3.7 8.6-11 17.5-26.4 31.9-2 1.9-18.4 12.6-26.5 17.3-13.1 7.6-22.9 12.8-45.5 24-54 26.6-95.1 40.3-118 39.1l-3-.2 4.2-3.7c3.3-3 14.9-11.4 30.7-22.2 6.6-4.6 67.6-50.6 70.7-53.3 4-3.6 6-7.1 5.5-9.8-.3-1.3-.5-2.8-.5-3.2-.1-.4-1.3-1.9-2.7-3.2-4.2-3.9-7.8-3.3-24.2 4.4-16.6 7.8-23.7 10.3-28.9 10.3-4.9 0-5.8-1.4-5.8-8.5 0-10.5 4.9-20.5 14.9-30.7 6.9-7 11.2-9.4 38.4-21 25.7-10.9 29.4-12.7 39.8-19.6 16.7-11 30.7-30.5 39-54.2 1-2.8 2.2-5.2 2.5-5.2.4 0 3.1 2.6 6 5.8zm42.4 166.8c13.7 9.1 21.8 20.1 20.9 28.4-2.3 19.4-38.6 48.6-83.1 66.8-25.4 10.5-52.2 17.3-84.8 21.6-12.9 1.8-36.5 3.2-64.4 4.1-10.7.3-12.3.9-11.6 4.7.5 2.4-.6 2.3-6.5-.8-7.4-3.9-7.6-4.3-5.6-12.7 1.1-4.5 1.6-10.4 1.5-15.9-.3-7.7 0-9 1.7-10.4 5-4 19.8-9.3 41.5-14.9 5.7-1.5 13.3-3.5 16.9-4.5 3.6-1.1 7.6-2.1 9-2.4 1.4-.2 4.5-1.1 7-1.9 2.5-.8 7.9-2.4 12-3.7 34.4-10.1 82.1-33 119-56.8 9.1-6 14.5-8.3 17-7.4.8.3 5.1 2.9 9.5 5.8zm35 97.3c11.3 11.5 13.4 16.4 9.8 23.8-2.2 4.7-11.5 10.6-21.8 13.8-7.8 2.5-27.7 6.8-36.6 8-9.3 1.2-18.2 2.3-24.4 3-21.9 2.4-71.4 2.4-98 0-8-.7-16-1.6-18-2-1.1-.2-3.8-.4-5.9-.4-8.2-.2-2.6-1 10.9-1.5 16.8-.7 26-1.4 34-2.6 3.3-.5 7.8-1.2 10-1.5 2.2-.4 4.7-.8 5.5-1 .8-.3 3.3-.7 5.5-1.1 2.2-.3 4.3-.8 4.6-1 .3-.2 2.1-.6 4-.9 1.9-.3 4.2-.8 5.1-1.1.9-.3 2.5-.6 3.5-.8 8.2-1.6 36.9-11.1 47.8-15.8 11.6-5.1 27.8-13.9 39.4-21.5l12.4-8.2 2.6 1.9c1.4 1 5.7 5 9.6 8.9zm-216.7 83.6c1.4.2 5 .9 8.1 1.6 3 .6 6.4 1.2 7.5 1.4 1.2.1 4.1.6 6.6.9 8.7 1.2 11.6 1.5 24.5 2.2 26.1 1.6 74.5.6 100-2 15.6-1.6 19.4-2.1 34.8-4.7 6.5-1 12.6-1.9 13.4-1.9 1.4 0 1.5 3 .9 26.7-.7 29.5-.9 32.6-3.3 42.8-2.3 10-3.6 12.2-8.1 13.4-4 1.1-15.9 2.7-26.2 3.6-3.6.4-8.3.8-10.5 1-25.6 2.6-100.6 2.5-123.5 0-1.9-.3-6-.7-9-1-9.8-1.1-22.4-3.5-26.7-5.1-4.9-1.9-5.9-3.9-6.9-14.4-.8-8-1.3-65.4-.7-68.1.4-1.4 1.4-1.3 8.5.8 4.4 1.3 9.2 2.5 10.6 2.8zm23.7 121c2.8.3 5.9.8 7 1 1.1.2 2.3.4 2.7.4.4.1-1.8 3.6-4.9 7.8-3 4.3-6.9 10.2-8.5 13.1-1.7 2.9-3.2 5.2-3.3 5-.2-.2-.6-1.9-.9-3.8-.3-1.9-1-6.2-1.6-9.5-.6-3.3-1.3-8.1-1.7-10.7l-.5-4.7 3.3.4c1.9.3 5.7.7 8.4 1zm61.3 11.2c6 4.6 14.2 11.6 20.8 17.8l5.4 5-7.3 11.5c-11.5 18.1-16.1 25-16.8 25-.5 0-33.7-21.9-35.7-23.5-.2-.2 16.7-28.8 22.1-37.3 3.1-4.8 3.3-4.8 11.5 1.5zm68.5 45 3.9.6-.7 5.6c-.4 3-.8 5.8-1 6.1-.1.3-.6 3-.9 6-.4 3-1.8 11.6-3.1 19-2.6 14.1-2.6 14.4-4.4 22.5-1.6 7-5.2 16.5-6.3 16.5-.5 0-.4-.9.2-1.9 1.5-2.8 1.2-8.6-.6-12.9-1.9-4.8-5.1-8-14.7-15.4l-7.8-5.9 3.4-4.7c7.7-10.6 16-22.8 19.9-29.3 4.4-7.3 4.7-7.5 12.1-6.2zm-109.7 36.4c7.2 3.6 15.4 8.1 18.2 9.9l5.1 3.3-1.5 2.9c-.9 1.7-3.2 5.6-5.2 8.7-4 6.2-5.3 8.3-9.6 16-3.2 5.6-3.4 5.6-10.4 2.4-5.5-2.6-7.4-6.5-10.8-22.8-.5-2.2-4.2-23.7-4.7-27.1-.3-1.9-.1-2 2.7-1 1.7.6 9 4 16.2 7.7zm64.2 38.3c10.2 5.1 17.3 7.4 22.2 7l3.5-.3-3.5 1.5c-3.1 1.3-8.2 2.7-15 4.1-4 .8-32 1.2-32 .5 0-1.2 14.1-17.2 15.1-17.2.5 0 4.9 2 9.7 4.4z"/></svg>