<?xml version="1.0" standalone="no"?>
<!DOCTYPE svg PUBLIC "-//W3C//DTD SVG 20010904//EN"
 "http://www.w3.org/TR/2001/REC-SVG-20010904/DTD/svg10.dtd">
<svg version="1.0" xmlns="http://www.w3.org/2000/svg"
 width="700.000000pt" height="700.000000pt" viewBox="0 0 700.000000 700.000000"
 preserveAspectRatio="xMidYMid meet">
<metadata>
Created by potrace 1.14, written by Peter Selinger 2001-2017
</metadata>
<g transform="translate(0.000000,700.000000) scale(0.100000,-0.100000)"
fill="#000000" stroke="none">
<path d="M3431 6958 c34 -174 42 -235 43 -323 1 -110 -11 -168 -55 -258 -78
-160 -211 -263 -479 -372 -153 -61 -299 -134 -377 -186 -183 -124 -324 -300
-382 -477 -62 -191 -58 -376 12 -497 l22 -40 -99 -77 c-192 -149 -319 -271
-363 -345 -35 -60 -61 -157 -56 -213 1 -25 17 -72 33 -104 27 -53 29 -61 15
-75 -8 -9 -24 -39 -37 -66 -20 -45 -22 -65 -20 -184 1 -98 -4 -156 -17 -215
-22 -101 -19 -150 13 -214 34 -66 120 -158 190 -202 55 -35 56 -36 57 -85 1
-27 3 -84 5 -125 1 -41 5 -165 9 -275 19 -675 21 -690 107 -764 102 -88 141
-128 164 -167 44 -75 85 -251 260 -1129 l76 -380 52 -53 c28 -29 78 -71 111
-93 l60 -39 641 0 642 0 58 39 c33 22 82 64 111 93 l51 53 36 180 c19 99 37
195 41 213 3 18 12 65 21 105 9 39 18 86 21 102 41 241 159 752 195 848 31 81
40 93 167 212 35 33 72 78 82 100 23 51 31 185 44 660 6 231 14 424 19 470 3
21 17 40 47 64 84 67 146 138 179 204 27 55 33 81 38 155 4 83 -7 170 -29 212
-4 8 -15 33 -24 55 -29 66 -104 165 -191 250 l-81 80 28 55 c96 189 74 400
-63 607 -52 79 -143 173 -225 234 l-51 38 28 53 c35 65 76 202 87 294 9 80 10
356 1 429 -18 135 -66 308 -119 420 -29 62 -112 193 -168 263 -140 176 -289
302 -535 456 l-90 56 -157 0 -156 0 8 -42z m490 -606 c113 -123 127 -140 166
-198 40 -58 77 -126 107 -194 86 -192 96 -461 25 -628 -37 -86 -110 -175 -264
-319 -20 -19 -184 -126 -265 -173 -131 -76 -229 -128 -455 -240 -540 -266
-951 -403 -1180 -391 l-30 2 42 37 c33 30 149 114 307 222 66 46 676 506 707
533 40 36 60 71 55 98 -3 13 -5 28 -5 32 -1 4 -13 19 -27 32 -42 39 -78 33
-242 -44 -166 -78 -237 -103 -289 -103 -49 0 -58 14 -58 85 0 105 49 205 149
307 69 70 112 94 384 210 257 109 294 127 398 196 167 110 307 305 390 542 10
28 22 52 25 52 4 0 31 -26 60 -58z m424 -1668 c137 -91 218 -201 209 -284 -23
-194 -386 -486 -831 -668 -254 -105 -522 -173 -848 -216 -129 -18 -365 -32
-644 -41 -107 -3 -123 -9 -116 -47 5 -24 -6 -23 -65 8 -74 39 -76 43 -56 127
11 45 16 104 15 159 -3 77 0 90 17 104 50 40 198 93 415 149 57 15 133 35 169
45 36 11 76 21 90 24 14 2 45 11 70 19 25 8 79 24 120 37 344 101 821 330
1190 568 91 60 145 83 170 74 8 -3 51 -29 95 -58z m350 -973 c113 -115 134
-164 98 -238 -22 -47 -115 -106 -218 -138 -78 -25 -277 -68 -366 -80 -93 -12
-182 -23 -244 -30 -219 -24 -714 -24 -980 0 -80 7 -160 16 -180 20 -11 2 -38
4 -59 4 -82 2 -26 10 109 15 168 7 260 14 340 26 33 5 78 12 100 15 22 4 47 8
55 10 8 3 33 7 55 11 22 3 43 8 46 10 3 2 21 6 40 9 19 3 42 8 51 11 9 3 25 6
35 8 82 16 369 111 478 158 116 51 278 139 394 215 l124 82 26 -19 c14 -10 57
-50 96 -89z m-2167 -836 c14 -2 50 -9 81 -16 30 -6 64 -12 75 -14 12 -1 41 -6
66 -9 87 -12 116 -15 245 -22 261 -16 745 -6 1000 20 156 16 194 21 348 47 65
10 126 19 134 19 14 0 15 -30 9 -267 -7 -295 -9 -326 -33 -428 -23 -100 -36
-122 -81 -134 -40 -11 -159 -27 -262 -36 -36 -4 -83 -8 -105 -10 -256 -26
-1006 -25 -1235 0 -19 3 -60 7 -90 10 -98 11 -224 35 -267 51 -49 19 -59 39
-69 144 -8 80 -13 654 -7 681 4 14 14 13 85 -8 44 -13 92 -25 106 -28z m237
-1210 c28 -3 59 -8 70 -10 11 -2 23 -4 27 -4 4 -1 -18 -36 -49 -78 -30 -43
-69 -102 -85 -131 -17 -29 -32 -52 -33 -50 -2 2 -6 19 -9 38 -3 19 -10 62 -16
95 -6 33 -13 81 -17 107 l-5 47 33 -4 c19 -3 57 -7 84 -10z m613 -112 c60 -46
142 -116 208 -178 l54 -50 -73 -115 c-115 -181 -161 -250 -168 -250 -5 0 -337
219 -357 235 -2 2 167 288 221 373 31 48 33 48 115 -15z m685 -450 l39 -6 -7
-56 c-4 -30 -8 -58 -10 -61 -1 -3 -6 -30 -9 -60 -4 -30 -18 -116 -31 -190 -26
-141 -26 -144 -44 -225 -16 -70 -52 -165 -63 -165 -5 0 -4 9 2 19 15 28 12 86
-6 129 -19 48 -51 80 -147 154 l-78 59 34 47 c77 106 160 228 199 293 44 73
47 75 121 62z m-1097 -364 c72 -36 154 -81 182 -99 l51 -33 -15 -29 c-9 -17
-32 -56 -52 -87 -40 -62 -53 -83 -96 -160 -32 -56 -34 -56 -104 -24 -55 26
-74 65 -108 228 -5 22 -42 237 -47 271 -3 19 -1 20 27 10 17 -6 90 -40 162
-77z m642 -383 c102 -51 173 -74 222 -70 l35 3 -35 -15 c-31 -13 -82 -27 -150
-41 -40 -8 -320 -12 -320 -5 0 12 141 172 151 172 5 0 49 -20 97 -44z"/>
</g>
</svg>
